<?xml version="1.0" encoding="UTF-8" standalone="no"?>
<!DOCTYPE svg PUBLIC "-//W3C//DTD SVG 1.1//EN"
 "http://www.w3.org/Graphics/SVG/1.1/DTD/svg11.dtd">
<!-- Generated by graphviz version 2.47.0 (20210316.0004)
 -->
<!-- Title: dependencies Pages: 1 -->
<svg width="504pt" height="211pt"
 viewBox="0.00 0.00 504.00 211.00" xmlns="http://www.w3.org/2000/svg" xmlns:xlink="http://www.w3.org/1999/xlink">
<g id="graph0" class="graph" transform="scale(1 1) rotate(0) translate(4 207)">
<title>dependencies</title>
<polygon fill="white" stroke="transparent" points="-4,4 -4,-207 500,-207 500,4 -4,4"/>
<text text-anchor="start" x="227.01" y="-42.4" font-family="Times-12" font-weight="bold" font-size="14.00">Legend</text>
<polygon fill="#ffffb3" stroke="transparent" points="14,-10 14,-30 34,-30 34,-10 14,-10"/>
<text text-anchor="start" x="37.63" y="-15.4" font-family="Times-12" font-size="14.00"> &#160;Declarations</text>
<polygon fill="#8dd3c7" stroke="transparent" points="127,-10 127,-30 147,-30 147,-10 127,-10"/>
<text text-anchor="start" x="150.73" y="-15.4" font-family="Times-12" font-size="14.00"> &#160;Module</text>
<polygon fill="#80b1d3" stroke="transparent" points="213,-10 213,-30 233,-30 233,-10 213,-10"/>
<text text-anchor="start" x="236.78" y="-15.4" font-family="Times-12" font-size="14.00"> &#160;Bootstrap</text>
<polygon fill="#fdb462" stroke="transparent" points="310,-10 310,-30 330,-30 330,-10 310,-10"/>
<text text-anchor="start" x="333.67" y="-15.4" font-family="Times-12" font-size="14.00"> &#160;Providers</text>
<polygon fill="#fb8072" stroke="transparent" points="406,-10 406,-30 426,-30 426,-10 406,-10"/>
<text text-anchor="start" x="429.73" y="-15.4" font-family="Times-12" font-size="14.00"> &#160;Exports</text>
<g id="clust1" class="cluster">
<title>cluster_Tab5PageModule</title>
<polygon fill="none" stroke="black" stroke-dasharray="1,5" points="42,-70 42,-195 454,-195 454,-70 42,-70"/>
</g>
<g id="clust5" class="cluster">
<title>cluster_Tab5PageModule_imports</title>
<polygon fill="none" stroke="black" points="270,-78 270,-130 446,-130 446,-78 270,-78"/>
</g>
<g id="clust2" class="cluster">
<title>cluster_Tab5PageModule_declarations</title>
<polygon fill="none" stroke="black" points="50,-78 50,-130 262,-130 262,-78 50,-78"/>
</g>
<!-- MapComponent -->
<g id="node1" class="node">
<title>MapComponent</title>
<polygon fill="#ffffb3" stroke="black" points="254.49,-122 147.51,-122 147.51,-86 254.49,-86 254.49,-122"/>
<text text-anchor="middle" x="201" y="-99.8" font-family="Times,serif" font-size="14.00">MapComponent</text>
</g>
<!-- Tab5PageModule -->
<g id="node3" class="node">
<title>Tab5PageModule</title>
<polygon fill="#8dd3c7" stroke="black" points="258.53,-187 255.53,-191 234.53,-191 231.53,-187 143.47,-187 143.47,-151 258.53,-151 258.53,-187"/>
<text text-anchor="middle" x="201" y="-164.8" font-family="Times,serif" font-size="14.00">Tab5PageModule</text>
</g>
<!-- MapComponent&#45;&gt;Tab5PageModule -->
<g id="edge1" class="edge">
<title>MapComponent&#45;&gt;Tab5PageModule</title>
<path fill="none" stroke="black" d="M201,-122.11C201,-122.11 201,-140.99 201,-140.99"/>
<polygon fill="black" stroke="black" points="197.5,-140.99 201,-150.99 204.5,-140.99 197.5,-140.99"/>
</g>
<!-- Tab5Page -->
<g id="node2" class="node">
<title>Tab5Page</title>
<polygon fill="#ffffb3" stroke="black" points="129.98,-122 58.02,-122 58.02,-86 129.98,-86 129.98,-122"/>
<text text-anchor="middle" x="94" y="-99.8" font-family="Times,serif" font-size="14.00">Tab5Page</text>
</g>
<!-- Tab5Page&#45;&gt;Tab5PageModule -->
<g id="edge2" class="edge">
<title>Tab5Page&#45;&gt;Tab5PageModule</title>
<path fill="none" stroke="black" d="M94,-122.11C94,-141.34 94,-169 94,-169 94,-169 133.43,-169 133.43,-169"/>
<polygon fill="black" stroke="black" points="133.43,-172.5 143.43,-169 133.43,-165.5 133.43,-172.5"/>
</g>
<!-- Tab5PageRoutingModule -->
<g id="node4" class="node">
<title>Tab5PageRoutingModule</title>
<polygon fill="#8dd3c7" stroke="black" points="438.15,-122 435.15,-126 414.15,-126 411.15,-122 277.85,-122 277.85,-86 438.15,-86 438.15,-122"/>
<text text-anchor="middle" x="358" y="-99.8" font-family="Times,serif" font-size="14.00">Tab5PageRoutingModule</text>
</g>
<!-- Tab5PageRoutingModule&#45;&gt;Tab5PageModule -->
<g id="edge3" class="edge">
<title>Tab5PageRoutingModule&#45;&gt;Tab5PageModule</title>
<path fill="none" stroke="black" d="M358,-122.11C358,-141.34 358,-169 358,-169 358,-169 268.57,-169 268.57,-169"/>
<polygon fill="black" stroke="black" points="268.57,-165.5 258.57,-169 268.57,-172.5 268.57,-165.5"/>
</g>
</g>
</svg>
