<?xml version="1.0" encoding="UTF-8" standalone="no"?>
<!DOCTYPE svg PUBLIC "-//W3C//DTD SVG 1.1//EN"
 "http://www.w3.org/Graphics/SVG/1.1/DTD/svg11.dtd">
<!-- Generated by graphviz version 2.47.0 (20210316.0004)
 -->
<!-- Title: dependencies Pages: 1 -->
<svg width="504pt" height="211pt"
 viewBox="0.00 0.00 504.00 211.00" xmlns="http://www.w3.org/2000/svg" xmlns:xlink="http://www.w3.org/1999/xlink">
<g id="graph0" class="graph" transform="scale(1 1) rotate(0) translate(4 207)">
<title>dependencies</title>
<polygon fill="white" stroke="transparent" points="-4,4 -4,-207 500,-207 500,4 -4,4"/>
<text text-anchor="start" x="227.01" y="-42.4" font-family="Times-12" font-weight="bold" font-size="14.00">Legend</text>
<polygon fill="#ffffb3" stroke="transparent" points="14,-10 14,-30 34,-30 34,-10 14,-10"/>
<text text-anchor="start" x="37.63" y="-15.4" font-family="Times-12" font-size="14.00"> &#160;Declarations</text>
<polygon fill="#8dd3c7" stroke="transparent" points="127,-10 127,-30 147,-30 147,-10 127,-10"/>
<text text-anchor="start" x="150.73" y="-15.4" font-family="Times-12" font-size="14.00"> &#160;Module</text>
<polygon fill="#80b1d3" stroke="transparent" points="213,-10 213,-30 233,-30 233,-10 213,-10"/>
<text text-anchor="start" x="236.78" y="-15.4" font-family="Times-12" font-size="14.00"> &#160;Bootstrap</text>
<polygon fill="#fdb462" stroke="transparent" points="310,-10 310,-30 330,-30 330,-10 310,-10"/>
<text text-anchor="start" x="333.67" y="-15.4" font-family="Times-12" font-size="14.00"> &#160;Providers</text>
<polygon fill="#fb8072" stroke="transparent" points="406,-10 406,-30 426,-30 426,-10 406,-10"/>
<text text-anchor="start" x="429.73" y="-15.4" font-family="Times-12" font-size="14.00"> &#160;Exports</text>
<g id="clust1" class="cluster">
<title>cluster_RegisterPagePageModule</title>
<polygon fill="none" stroke="black" stroke-dasharray="1,5" points="58,-70 58,-195 438,-195 438,-70 58,-70"/>
</g>
<g id="clust4" class="cluster">
<title>cluster_RegisterPagePageModule_imports</title>
<polygon fill="none" stroke="black" points="208,-78 208,-130 430,-130 430,-78 208,-78"/>
</g>
<g id="clust2" class="cluster">
<title>cluster_RegisterPagePageModule_declarations</title>
<polygon fill="none" stroke="black" points="66,-78 66,-130 200,-130 200,-78 66,-78"/>
</g>
<!-- RegisterPagePage -->
<g id="node1" class="node">
<title>RegisterPagePage</title>
<polygon fill="#ffffb3" stroke="black" points="191.58,-122 74.42,-122 74.42,-86 191.58,-86 191.58,-122"/>
<text text-anchor="middle" x="133" y="-99.8" font-family="Times,serif" font-size="14.00">RegisterPagePage</text>
</g>
<!-- RegisterPagePageModule -->
<g id="node2" class="node">
<title>RegisterPagePageModule</title>
<polygon fill="#8dd3c7" stroke="black" points="312.13,-187 309.13,-191 288.13,-191 285.13,-187 151.87,-187 151.87,-151 312.13,-151 312.13,-187"/>
<text text-anchor="middle" x="232" y="-164.8" font-family="Times,serif" font-size="14.00">RegisterPagePageModule</text>
</g>
<!-- RegisterPagePage&#45;&gt;RegisterPagePageModule -->
<g id="edge1" class="edge">
<title>RegisterPagePage&#45;&gt;RegisterPagePageModule</title>
<path fill="none" stroke="black" d="M171.61,-122.11C171.61,-122.11 171.61,-140.99 171.61,-140.99"/>
<polygon fill="black" stroke="black" points="168.11,-140.99 171.61,-150.99 175.11,-140.99 168.11,-140.99"/>
</g>
<!-- RegisterPagePageRoutingModule -->
<g id="node3" class="node">
<title>RegisterPagePageRoutingModule</title>
<polygon fill="#8dd3c7" stroke="black" points="421.74,-122 418.74,-126 397.74,-126 394.74,-122 216.26,-122 216.26,-86 421.74,-86 421.74,-122"/>
<text text-anchor="middle" x="319" y="-99.8" font-family="Times,serif" font-size="14.00">RegisterPagePageRoutingModule</text>
</g>
<!-- RegisterPagePageRoutingModule&#45;&gt;RegisterPagePageModule -->
<g id="edge2" class="edge">
<title>RegisterPagePageRoutingModule&#45;&gt;RegisterPagePageModule</title>
<path fill="none" stroke="black" d="M264.22,-122.11C264.22,-122.11 264.22,-140.99 264.22,-140.99"/>
<polygon fill="black" stroke="black" points="260.72,-140.99 264.22,-150.99 267.72,-140.99 260.72,-140.99"/>
</g>
</g>
</svg>
