<?xml version="1.0" encoding="UTF-8" standalone="no"?>
<!DOCTYPE svg PUBLIC "-//W3C//DTD SVG 1.1//EN"
 "http://www.w3.org/Graphics/SVG/1.1/DTD/svg11.dtd">
<!-- Generated by graphviz version 2.47.0 (20210316.0004)
 -->
<!-- Title: dependencies Pages: 1 -->
<svg width="504pt" height="211pt"
 viewBox="0.00 0.00 504.00 211.00" xmlns="http://www.w3.org/2000/svg" xmlns:xlink="http://www.w3.org/1999/xlink">
<g id="graph0" class="graph" transform="scale(1 1) rotate(0) translate(4 207)">
<title>dependencies</title>
<polygon fill="white" stroke="transparent" points="-4,4 -4,-207 500,-207 500,4 -4,4"/>
<text text-anchor="start" x="227.01" y="-42.4" font-family="Times-12" font-weight="bold" font-size="14.00">Legend</text>
<polygon fill="#ffffb3" stroke="transparent" points="14,-10 14,-30 34,-30 34,-10 14,-10"/>
<text text-anchor="start" x="37.63" y="-15.4" font-family="Times-12" font-size="14.00"> &#160;Declarations</text>
<polygon fill="#8dd3c7" stroke="transparent" points="127,-10 127,-30 147,-30 147,-10 127,-10"/>
<text text-anchor="start" x="150.73" y="-15.4" font-family="Times-12" font-size="14.00"> &#160;Module</text>
<polygon fill="#80b1d3" stroke="transparent" points="213,-10 213,-30 233,-30 233,-10 213,-10"/>
<text text-anchor="start" x="236.78" y="-15.4" font-family="Times-12" font-size="14.00"> &#160;Bootstrap</text>
<polygon fill="#fdb462" stroke="transparent" points="310,-10 310,-30 330,-30 330,-10 310,-10"/>
<text text-anchor="start" x="333.67" y="-15.4" font-family="Times-12" font-size="14.00"> &#160;Providers</text>
<polygon fill="#fb8072" stroke="transparent" points="406,-10 406,-30 426,-30 426,-10 406,-10"/>
<text text-anchor="start" x="429.73" y="-15.4" font-family="Times-12" font-size="14.00"> &#160;Exports</text>
<g id="clust1" class="cluster">
<title>cluster_Tab2PageModule</title>
<polygon fill="none" stroke="black" stroke-dasharray="1,5" points="104,-70 104,-195 392,-195 392,-70 104,-70"/>
</g>
<g id="clust2" class="cluster">
<title>cluster_Tab2PageModule_declarations</title>
<polygon fill="none" stroke="black" points="296,-78 296,-130 384,-130 384,-78 296,-78"/>
</g>
<g id="clust4" class="cluster">
<title>cluster_Tab2PageModule_imports</title>
<polygon fill="none" stroke="black" points="112,-78 112,-130 288,-130 288,-78 112,-78"/>
</g>
<!-- Tab2Page -->
<g id="node1" class="node">
<title>Tab2Page</title>
<polygon fill="#ffffb3" stroke="black" points="375.98,-122 304.02,-122 304.02,-86 375.98,-86 375.98,-122"/>
<text text-anchor="middle" x="340" y="-99.8" font-family="Times,serif" font-size="14.00">Tab2Page</text>
</g>
<!-- Tab2PageModule -->
<g id="node2" class="node">
<title>Tab2PageModule</title>
<polygon fill="#8dd3c7" stroke="black" points="320.53,-187 317.53,-191 296.53,-191 293.53,-187 205.47,-187 205.47,-151 320.53,-151 320.53,-187"/>
<text text-anchor="middle" x="263" y="-164.8" font-family="Times,serif" font-size="14.00">Tab2PageModule</text>
</g>
<!-- Tab2Page&#45;&gt;Tab2PageModule -->
<g id="edge1" class="edge">
<title>Tab2Page&#45;&gt;Tab2PageModule</title>
<path fill="none" stroke="black" d="M312.39,-122.11C312.39,-122.11 312.39,-140.99 312.39,-140.99"/>
<polygon fill="black" stroke="black" points="308.89,-140.99 312.39,-150.99 315.89,-140.99 308.89,-140.99"/>
</g>
<!-- Tab2PageRoutingModule -->
<g id="node3" class="node">
<title>Tab2PageRoutingModule</title>
<polygon fill="#8dd3c7" stroke="black" points="280.15,-122 277.15,-126 256.15,-126 253.15,-122 119.85,-122 119.85,-86 280.15,-86 280.15,-122"/>
<text text-anchor="middle" x="200" y="-99.8" font-family="Times,serif" font-size="14.00">Tab2PageRoutingModule</text>
</g>
<!-- Tab2PageRoutingModule&#45;&gt;Tab2PageModule -->
<g id="edge2" class="edge">
<title>Tab2PageRoutingModule&#45;&gt;Tab2PageModule</title>
<path fill="none" stroke="black" d="M242.78,-122.11C242.78,-122.11 242.78,-140.99 242.78,-140.99"/>
<polygon fill="black" stroke="black" points="239.28,-140.99 242.78,-150.99 246.28,-140.99 239.28,-140.99"/>
</g>
</g>
</svg>
