<?xml version="1.0" encoding="UTF-8" standalone="no"?>
<!DOCTYPE svg PUBLIC "-//W3C//DTD SVG 1.1//EN"
 "http://www.w3.org/Graphics/SVG/1.1/DTD/svg11.dtd">
<!-- Generated by graphviz version 2.47.0 (20210316.0004)
 -->
<!-- Title: dependencies Pages: 1 -->
<svg width="504pt" height="211pt"
 viewBox="0.00 0.00 504.00 211.00" xmlns="http://www.w3.org/2000/svg" xmlns:xlink="http://www.w3.org/1999/xlink">
<g id="graph0" class="graph" transform="scale(1 1) rotate(0) translate(4 207)">
<title>dependencies</title>
<polygon fill="white" stroke="transparent" points="-4,4 -4,-207 500,-207 500,4 -4,4"/>
<text text-anchor="start" x="227.01" y="-42.4" font-family="Times-12" font-weight="bold" font-size="14.00">Legend</text>
<polygon fill="#ffffb3" stroke="transparent" points="14,-10 14,-30 34,-30 34,-10 14,-10"/>
<text text-anchor="start" x="37.63" y="-15.4" font-family="Times-12" font-size="14.00"> &#160;Declarations</text>
<polygon fill="#8dd3c7" stroke="transparent" points="127,-10 127,-30 147,-30 147,-10 127,-10"/>
<text text-anchor="start" x="150.73" y="-15.4" font-family="Times-12" font-size="14.00"> &#160;Module</text>
<polygon fill="#80b1d3" stroke="transparent" points="213,-10 213,-30 233,-30 233,-10 213,-10"/>
<text text-anchor="start" x="236.78" y="-15.4" font-family="Times-12" font-size="14.00"> &#160;Bootstrap</text>
<polygon fill="#fdb462" stroke="transparent" points="310,-10 310,-30 330,-30 330,-10 310,-10"/>
<text text-anchor="start" x="333.67" y="-15.4" font-family="Times-12" font-size="14.00"> &#160;Providers</text>
<polygon fill="#fb8072" stroke="transparent" points="406,-10 406,-30 426,-30 426,-10 406,-10"/>
<text text-anchor="start" x="429.73" y="-15.4" font-family="Times-12" font-size="14.00"> &#160;Exports</text>
<g id="clust1" class="cluster">
<title>cluster_FirstPagePageModule</title>
<polygon fill="none" stroke="black" stroke-dasharray="1,5" points="80,-70 80,-195 416,-195 416,-70 80,-70"/>
</g>
<g id="clust4" class="cluster">
<title>cluster_FirstPagePageModule_imports</title>
<polygon fill="none" stroke="black" points="208,-78 208,-130 408,-130 408,-78 208,-78"/>
</g>
<g id="clust2" class="cluster">
<title>cluster_FirstPagePageModule_declarations</title>
<polygon fill="none" stroke="black" points="88,-78 88,-130 200,-130 200,-78 88,-78"/>
</g>
<!-- FirstPagePage -->
<g id="node1" class="node">
<title>FirstPagePage</title>
<polygon fill="#ffffb3" stroke="black" points="192.09,-122 95.91,-122 95.91,-86 192.09,-86 192.09,-122"/>
<text text-anchor="middle" x="144" y="-99.8" font-family="Times,serif" font-size="14.00">FirstPagePage</text>
</g>
<!-- FirstPagePageModule -->
<g id="node2" class="node">
<title>FirstPagePageModule</title>
<polygon fill="#8dd3c7" stroke="black" points="302.64,-187 299.64,-191 278.64,-191 275.64,-187 163.36,-187 163.36,-151 302.64,-151 302.64,-187"/>
<text text-anchor="middle" x="233" y="-164.8" font-family="Times,serif" font-size="14.00">FirstPagePageModule</text>
</g>
<!-- FirstPagePage&#45;&gt;FirstPagePageModule -->
<g id="edge1" class="edge">
<title>FirstPagePage&#45;&gt;FirstPagePageModule</title>
<path fill="none" stroke="black" d="M177.61,-122.11C177.61,-122.11 177.61,-140.99 177.61,-140.99"/>
<polygon fill="black" stroke="black" points="174.11,-140.99 177.61,-150.99 181.11,-140.99 174.11,-140.99"/>
</g>
<!-- FirstPagePageRoutingModule -->
<g id="node3" class="node">
<title>FirstPagePageRoutingModule</title>
<polygon fill="#8dd3c7" stroke="black" points="400.26,-122 397.26,-126 376.26,-126 373.26,-122 215.74,-122 215.74,-86 400.26,-86 400.26,-122"/>
<text text-anchor="middle" x="308" y="-99.8" font-family="Times,serif" font-size="14.00">FirstPagePageRoutingModule</text>
</g>
<!-- FirstPagePageRoutingModule&#45;&gt;FirstPagePageModule -->
<g id="edge2" class="edge">
<title>FirstPagePageRoutingModule&#45;&gt;FirstPagePageModule</title>
<path fill="none" stroke="black" d="M259.22,-122.11C259.22,-122.11 259.22,-140.99 259.22,-140.99"/>
<polygon fill="black" stroke="black" points="255.72,-140.99 259.22,-150.99 262.72,-140.99 255.72,-140.99"/>
</g>
</g>
</svg>
