<?xml version="1.0" encoding="UTF-8" standalone="no"?>
<!DOCTYPE svg PUBLIC "-//W3C//DTD SVG 1.1//EN"
 "http://www.w3.org/Graphics/SVG/1.1/DTD/svg11.dtd">
<!-- Generated by graphviz version 2.47.0 (20210316.0004)
 -->
<!-- Title: dependencies Pages: 1 -->
<svg width="504pt" height="211pt"
 viewBox="0.00 0.00 504.00 211.00" xmlns="http://www.w3.org/2000/svg" xmlns:xlink="http://www.w3.org/1999/xlink">
<g id="graph0" class="graph" transform="scale(1 1) rotate(0) translate(4 207)">
<title>dependencies</title>
<polygon fill="white" stroke="transparent" points="-4,4 -4,-207 500,-207 500,4 -4,4"/>
<text text-anchor="start" x="227.01" y="-42.4" font-family="Times-12" font-weight="bold" font-size="14.00">Legend</text>
<polygon fill="#ffffb3" stroke="transparent" points="14,-10 14,-30 34,-30 34,-10 14,-10"/>
<text text-anchor="start" x="37.63" y="-15.4" font-family="Times-12" font-size="14.00"> &#160;Declarations</text>
<polygon fill="#8dd3c7" stroke="transparent" points="127,-10 127,-30 147,-30 147,-10 127,-10"/>
<text text-anchor="start" x="150.73" y="-15.4" font-family="Times-12" font-size="14.00"> &#160;Module</text>
<polygon fill="#80b1d3" stroke="transparent" points="213,-10 213,-30 233,-30 233,-10 213,-10"/>
<text text-anchor="start" x="236.78" y="-15.4" font-family="Times-12" font-size="14.00"> &#160;Bootstrap</text>
<polygon fill="#fdb462" stroke="transparent" points="310,-10 310,-30 330,-30 330,-10 310,-10"/>
<text text-anchor="start" x="333.67" y="-15.4" font-family="Times-12" font-size="14.00"> &#160;Providers</text>
<polygon fill="#fb8072" stroke="transparent" points="406,-10 406,-30 426,-30 426,-10 406,-10"/>
<text text-anchor="start" x="429.73" y="-15.4" font-family="Times-12" font-size="14.00"> &#160;Exports</text>
<g id="clust1" class="cluster">
<title>cluster_AdminNotificationPageModule</title>
<polygon fill="none" stroke="black" stroke-dasharray="1,5" points="26,-70 26,-195 470,-195 470,-70 26,-70"/>
</g>
<g id="clust2" class="cluster">
<title>cluster_AdminNotificationPageModule_declarations</title>
<polygon fill="none" stroke="black" points="296,-78 296,-130 462,-130 462,-78 296,-78"/>
</g>
<g id="clust4" class="cluster">
<title>cluster_AdminNotificationPageModule_imports</title>
<polygon fill="none" stroke="black" points="34,-78 34,-130 288,-130 288,-78 34,-78"/>
</g>
<!-- AdminNotificationPage -->
<g id="node1" class="node">
<title>AdminNotificationPage</title>
<polygon fill="#ffffb3" stroke="black" points="453.75,-122 304.25,-122 304.25,-86 453.75,-86 453.75,-122"/>
<text text-anchor="middle" x="379" y="-99.8" font-family="Times,serif" font-size="14.00">AdminNotificationPage</text>
</g>
<!-- AdminNotificationPageModule -->
<g id="node2" class="node">
<title>AdminNotificationPageModule</title>
<polygon fill="#8dd3c7" stroke="black" points="359.8,-187 356.8,-191 335.8,-191 332.8,-187 166.2,-187 166.2,-151 359.8,-151 359.8,-187"/>
<text text-anchor="middle" x="263" y="-164.8" font-family="Times,serif" font-size="14.00">AdminNotificationPageModule</text>
</g>
<!-- AdminNotificationPage&#45;&gt;AdminNotificationPageModule -->
<g id="edge1" class="edge">
<title>AdminNotificationPage&#45;&gt;AdminNotificationPageModule</title>
<path fill="none" stroke="black" d="M331.89,-122.11C331.89,-122.11 331.89,-140.99 331.89,-140.99"/>
<polygon fill="black" stroke="black" points="328.39,-140.99 331.89,-150.99 335.39,-140.99 328.39,-140.99"/>
</g>
<!-- AdminNotificationPageRoutingModule -->
<g id="node3" class="node">
<title>AdminNotificationPageRoutingModule</title>
<polygon fill="#8dd3c7" stroke="black" points="280.42,-122 277.42,-126 256.42,-126 253.42,-122 41.58,-122 41.58,-86 280.42,-86 280.42,-122"/>
<text text-anchor="middle" x="161" y="-99.8" font-family="Times,serif" font-size="14.00">AdminNotificationPageRoutingModule</text>
</g>
<!-- AdminNotificationPageRoutingModule&#45;&gt;AdminNotificationPageModule -->
<g id="edge2" class="edge">
<title>AdminNotificationPageRoutingModule&#45;&gt;AdminNotificationPageModule</title>
<path fill="none" stroke="black" d="M223.28,-122.11C223.28,-122.11 223.28,-140.99 223.28,-140.99"/>
<polygon fill="black" stroke="black" points="219.78,-140.99 223.28,-150.99 226.78,-140.99 219.78,-140.99"/>
</g>
</g>
</svg>
